<svg width="825" height="825" viewBox="0 0 825 825" fill="none" xmlns="http://www.w3.org/2000/svg">
<rect width="825" height="825" rx="185" fill="white"/>
<g clip-path="url(#clip0_33_3)">
<path d="M226.713 137.363C248.696 134.222 279.517 141.392 319.342 164.209L326.902 168.684L331.348 171.463L342.382 169.156C384.452 161.027 427.617 160.274 469.945 166.933L482.618 169.156L493.624 171.463L498.098 168.684C536.59 145.339 567.216 136.167 590.422 136.779L594.98 137.001L599.065 137.474L601.177 137.863L602.567 138.168L606.569 139.475C613.121 142.183 618.391 147.293 621.299 153.76C632.671 179.097 636.502 207.175 632.332 234.633L631.026 242.054L629.747 247.501L633.166 252.031C649.118 274.125 659.012 300.055 661.791 327.263L662.43 335.461L662.625 343.021C662.625 450.158 616.518 506.519 533.56 528.669L526.751 530.364L523.083 531.17L523.472 535.645L523.694 540.008L523.805 550.152L523.75 556.072L523.667 662.625C523.666 669.432 521.166 676.002 516.643 681.089C512.12 686.176 505.887 689.426 499.126 690.222L495.875 690.417H329.125C322.318 690.416 315.748 687.917 310.661 683.393C305.574 678.87 302.324 672.637 301.528 665.877L301.333 662.625V642.226C250.808 649.452 217.124 630.442 187.109 590.033L172.241 568.745C164.459 557.739 159.596 552.653 155.872 550.847L154.538 550.319C147.657 548.083 141.919 543.252 138.544 536.852C135.169 530.452 134.423 522.989 136.464 516.047C138.505 509.106 143.173 503.235 149.475 499.68C155.777 496.126 163.216 495.17 170.212 497.014C188.054 502.239 200.06 512.8 213.845 531.448L228.797 552.82C249.919 582.807 266.594 593.368 301.305 585.92L301.333 567.077L300.833 562.408C300.012 554.804 299.817 547.144 300.249 539.508L300.722 534.366L301.25 531.031L298.248 530.364C215.54 510.632 167.544 458.857 162.764 359.751L162.486 351.136L162.375 343.021C162.407 312.911 171.173 283.456 187.61 258.228L191.834 252.059L195.225 247.529L193.974 242.082C188.964 217.668 190.352 192.374 198.004 168.656L200.783 160.819L203.729 153.787C206.63 147.326 211.889 142.217 218.431 139.502L222.433 138.196L226.713 137.363Z" fill="#21B573"/>
</g>
<defs>
<clipPath id="clip0_33_3">
<rect width="667" height="667" fill="white" transform="translate(79 79)"/>
</clipPath>
</defs>
</svg>
