<?xml version="1.0" encoding="UTF-8"?><svg id="Ikon" xmlns="http://www.w3.org/2000/svg" width="271.9" height="276.75" viewBox="0 0 271.9 276.75"><defs><style>.cls-1{fill:#22b573;stroke-width:0px;}</style></defs><path class="cls-1" d="m266.08,146.8l-124.11,124.12c-3.22,3.22-8.43,3.22-11.65,0l-46.66-46.66h.01S5.82,146.41,5.82,146.41c-3.22-3.22-3.22-8.43,0-11.65l40.83-40.82c3.22-3.22,8.43-3.22,11.65,0l26.35,26.35c5.19,5.19,14.06,1.51,14.06-5.82V8.24c0-4.55,3.69-8.24,8.24-8.24h57.75c4.55,0,8.24,3.69,8.24,8.24v106.89c0,7.34,8.87,11.01,14.06,5.82l26.61-26.61c3.22-3.22,8.43-3.22,11.65,0l40.82,40.82c3.22,3.22,3.22,8.43,0,11.65Z"/></svg>